<?xml version="1.0" encoding="utf-8"?>
        <!-- Generator: Adobe Illustrator 23.0.1, SVG Export Plug-In . SVG Version: 6.00 Build 0)  -->
         <svg version="1.1" id="Calque_1" xmlns="http://www.w3.org/2000/svg" xmlns:xlink="http://www.w3.org/1999/xlink"
          x="0px" y="0px" viewBox="0 0 500 500" style="enable-background:new 0 0 500 500;" xml:space="preserve">
            <style type="text/css"> 
            .st0{fill:none;stroke:#000000;stroke-width:2;stroke-miterlimit:10;} 
            </style><path class="st0" xmlns="http://www.w3.org/2000/svg" d="M165.8084,168.28757c-0.17904,-3.40164 -3.15393,-8.02422 -0.5371,-10.20491c13.94743,-11.62285 27.36226,0.58953 24.70663,17.18722c-0.29272,1.82947 -20.16999,11.5894 -23.63242,6.44521c-5.38345,-7.99826 -7.23174,-18.29228 -7.51941,-27.92924c-0.10262,-3.43759 3.22963,-6.83681 6.44521,-8.05651c7.78886,-2.95439 18.0823,-8.81076 24.70663,-3.7597c29.27706,22.32376 23.84378,42.88011 -2.6855,54.78428c-11.49578,5.15836 -31.62239,1.94571 -32.76314,-15.03882c-1.26937,-18.89948 -3.76141,-40.79513 6.98231,-56.39558c6.09358,-8.84822 21.99884,-3.82758 32.22604,-0.53709c27.78715,8.94021 63.27216,48.69572 23.09533,82.17641c-58.15153,48.45961 -86.22082,-48.36347 -76.2683,-73.0457c7.98088,-19.79259 35.32756,-24.76355 55.32138,-32.22604c6.64605,-2.48057 16.04876,-1.3717 20.94692,3.7597c18.82655,19.72305 31.15184,44.75839 46.72777,67.13759M360.23886,346.60502c5.19197,-1.96937 12.11909,-10.25384 15.57592,-5.90811c6.16626,7.75187 4.74145,19.75241 3.2226,29.54054c-0.41994,2.7063 -5.34006,1.95957 -8.05651,1.61131c-4.49246,-0.57595 -11.51923,0.01988 -12.89042,-4.29681c-4.17663,-13.14864 -10.54628,-30.84501 -1.6113,-41.35675c8.23985,-9.69394 30.72811,-11.95627 38.13415,-1.61131c9.52038,13.2983 4.49248,35.08375 -4.29681,48.87617c-5.58542,8.7648 -24.36617,14.21317 -30.61474,5.9081c-12.70858,-16.89115 -22.42367,-44.01978 -11.81622,-62.30369c8.90706,-15.35296 39.73166,-20.24383 52.63587,-8.05651c15.28421,14.43509 20.04575,47.78653 5.37101,62.84079c-15.74815,16.15542 -58.90161,21.85966 -67.67469,1.0742c-46.37014,-109.86157 48.81842,-88.08873 76.8054,-67.6747c4.64889,3.39096 1.07419,11.45815 1.6113,17.18723M212.53616,314.37897c-1.79033,-6.98231 0.9364,-17.45773 -5.37101,-20.94693c-6.1438,-3.39871 -16.59797,0.77156 -19.87273,6.98232c-3.57017,6.77102 -2.20532,18.51902 4.29681,22.55823c8.82186,5.48025 29.65518,9.73998 31.15184,-0.5371c2.85596,-19.61095 -12.60688,-37.96946 -23.09533,-54.78428c-1.89742,-3.04188 -7.45553,-0.89547 -10.74201,0.5371c-4.50088,1.96193 -17.72307,15.3199 -18.26143,20.40983c-1.54599,14.61667 -7.89781,33.31328 2.14841,44.04226c19.77428,21.11817 58.41679,25.3197 72.5086,-1.6113c12.80011,-24.46242 3.84389,-78.59694 -31.15184,-83.25062c-23.58833,-3.13674 -50.31646,10.80662 -64.98919,29.54055c-9.76526,12.46814 -9.15212,39.83478 4.83391,47.26486c29.0182,15.41592 66.00951,13.66047 98.28943,7.51941c10.09276,-1.92009 16.23134,-19.18963 11.81622,-28.46633c-13.38761,-28.12901 -36.73341,-50.83487 -59.61818,-71.9715c-4.34213,-4.01044 -12.87839,-2.84737 -17.72433,0.53709c-18.69234,13.05497 -33.30024,31.15184 -49.95037,46.72777M337.68063,156.47135c5.37101,-1.43227 12.54681,-8.56075 16.11302,-4.29681c7.4659,8.92661 9.21337,22.21669 8.5936,33.83735c-0.37498,7.03093 -25.00855,8.89789 -26.31793,6.98231c-11.20252,-16.38886 -38.00741,-96.17863 41.89386,-58.54398c85.91459,40.46701 -40.16641,81.96203 -41.89386,81.63931c-20.23873,-3.78086 -28.17677,-30.83935 -37.05995,-49.41327c-3.56082,-7.44535 -4.06976,-18.72013 1.6113,-24.70664c12.80981,-13.49851 30.97735,-21.23062 48.33907,-27.92924c6.20048,-2.39231 17.40447,-4.55934 19.87273,1.61131c36.12887,90.32217 55.74573,106.50321 -12.35332,121.92186c-6.63763,1.50286 -13.81863,1.15778 -20.40983,-0.5371c-42.2061,-10.853 -38.91776,-73.8448 -26.31793,-108.49434c5.20204,-14.3056 30.4357,-0.71614 45.65356,-1.0742M315.6595,269.26251c1.25323,-5.55004 6.5229,-11.67637 3.7597,-16.65013c-2.38747,-4.29744 -9.69264,-3.70561 -14.50173,-2.6855c-3.73576,0.79243 -3.83656,13.08001 -3.7597,14.50172c0.55926,10.34635 2.81362,33.31962 26.85504,19.87273c32.11226,-17.96109 -24.04176,-65.73552 -40.28255,-35.44865c-38.23695,71.30675 52.01055,43.91928 56.93268,35.44865c4.90864,-8.44744 1.05055,-22.90513 -6.98231,-28.46634c-15.85392,-10.9758 -36.6897,-12.94768 -55.85848,-15.03882c-3.04128,-0.33178 -2.8074,5.56259 -3.2226,8.59361c-1.3884,10.13536 -2.52425,20.39164 -2.1484,30.61474c0.523,14.22553 3.2226,28.28731 4.83391,42.43096M258.72682,205.88462c3.93874,-2.6855 8.20554,-11.16916 11.81622,-8.05651c18.01414,15.52943 -2.06449,31.20219 -12.89041,24.70664c-15.40607,-9.24365 6.99136,-37.8701 9.13071,-40.28255c2.42278,-2.73207 8.529,-0.75619 10.74202,2.1484c7.08594,9.3003 18.84302,20.63299 15.03882,31.68895c-4.01721,11.67502 -20.76231,22.84692 -32.22605,18.26142c-52.41062,-20.96425 -5.34586,-52.12392 6.44521,-63.91498M95.9853,215.55244c3.7597,-10.74201 14.18302,-21.22179 11.27911,-32.22605c-1.9077,-7.22919 -16.4361,-11.96054 -21.48403,-6.44521c-25.40866,27.76131 -2.21223,58.36754 29.54054,59.08108c7.52816,0.16917 10.40009,-12.35044 10.74201,-19.87273c0.75136,-16.52982 3.09807,-70.03659 -34.91155,-61.22948c-8.55335,1.98187 -15.45921,11.71102 -16.65012,20.40982c-2.18904,15.98952 -11.89142,95.46825 38.13415,89.15872c12.31144,-1.5528 20.27377,-15.73501 25.78083,-26.85504c6.80826,-13.74745 -1.90065,-70.17292 -5.37101,-76.2683c-7.19416,-12.63589 -20.13412,-29.79352 -34.37445,-26.85504c-17.19758,3.54871 -26.30641,24.71262 -33.30024,40.81965c-17.6517,40.6524 21.3413,89.14134 35.44865,118.16216M114.78382,346.06791c4.65487,-1.79033 10.5273,-8.9846 13.96462,-5.37101c6.49424,6.82727 14.18983,21.32266 6.98232,27.39214c-7.45312,6.27631 -23.03459,-1.48981 -27.39214,-10.20491c-5.40255,-10.80508 -1.58132,-25.43184 4.29681,-35.98575c3.30576,-5.93535 13.76707,-10.3372 19.33563,-6.44521c14.05836,9.82574 36.52272,25.25463 30.61474,41.35675c-7.67967,20.93086 -36.24581,28.44904 -58.00688,33.30024c-9.7763,2.17943 -24.3409,-4.68248 -26.31793,-14.50172c-4.36319,-21.67051 -5.22854,-49.70047 10.20491,-65.52629c40.23913,-41.26216 54.7048,3.60076 63.91498,22.02113M194.81183,370.77454c-6.98231,17.54529 -24.62203,34.11336 -20.94692,52.63587c1.71714,8.65436 37.88654,24.25542 47.26486,8.05651c5.92918,-10.24132 12.27728,-22.10352 10.74201,-33.83734c-3.26807,-24.97738 -42.00565,-37.05286 -60.69238,-26.31793c-9.45059,5.42906 -6.0234,20.98124 -8.05651,31.68895c-3.85727,20.31496 16.68887,48.5644 35.98575,49.95037c23.00483,1.65228 40.81965,-21.48403 61.22948,-32.22605M289.34156,371.31165c2.86454,-0.71613 6.70334,-4.41672 8.59361,-2.1484c2.52412,3.02895 3.26373,12.86473 -0.5371,11.81622c-7.08238,-1.95376 -20.44565,-11.13874 -15.03882,-16.11302c7.04373,-6.48023 31.2166,-5.40782 28.46634,3.7597c-3.75019,12.50063 -21.89186,16.82017 -34.91155,17.72432c-5.1548,0.35797 -2.86897,-9.94895 -3.7597,-15.03882c-0.37034,-2.11624 -2.02954,-5.74051 0,-6.44521c12.37414,-4.29657 25.66425,-8.53076 38.67125,-6.98231c4.61197,0.54904 5.59394,7.78746 6.44521,12.35331c1.18174,6.33847 4.53506,15.35494 -0.5371,19.33563c-11.57969,9.08786 -37.12918,27.89216 -41.89386,13.96462c-8.42206,-24.6183 5.27287,-54.42597 20.94693,-75.19411c5.74453,-7.6115 20.18515,8.90389 22.02113,18.26143c7.40842,37.75903 7.40704,83.75421 -42.43096,80.02801c-30.95712,-2.31455 -31.43012,-77.05008 -30.61474,-80.02801c3.93568,-14.37379 23.27437,-18.6195 34.91155,-27.92924M409.11502,246.16718c-1.79033,4.47583 -6.98307,8.88442 -5.37101,13.42751c1.30759,3.68503 9.2998,6.59478 11.27912,3.2226c4.74386,-8.08214 10.31518,-34.05464 3.2226,-27.92923c-10.34134,8.93116 -19.3598,25.17121 -15.03882,38.13415c2.78798,8.36395 21.23061,1.64332 25.78083,-5.90811c6.19155,-10.27534 7.02373,-26.67167 -0.5371,-35.98574c-19.18813,-23.63755 -69.31706,-9.83482 -49.41327,32.22604c34.0447,71.94352 56.83552,-16.23411 60.15528,-23.63242M272.15434,89.87087c9.13072,7.16134 28.48202,9.93124 27.39214,21.48403c-0.9667,10.24699 -21.14699,12.09883 -30.07764,6.98231c-12.25552,-7.02139 -18.16047,-22.79506 -21.48403,-36.52285c-1.34414,-5.55187 3.63458,-12.94529 9.13072,-14.50172c16.55934,-4.68937 34.9511,-7.19007 51.56167,-2.68551c7.43811,2.01712 15.90556,13.34038 11.81622,19.87273c-12.45784,19.9002 -31.03902,38.36097 -53.17297,46.19066c-9.92821,3.51202 -23.35529,-8.01349 -25.78083,-18.26142c-4.18808,-17.69461 -14.95282,-85.59646 27.92924,-82.17642c21.94635,1.75032 42.60999,11.10009 63.91498,16.65013M141.63886,84.49986c15.54349,1.88406 39.43062,10.50794 31.15184,-27.92924c-1.5088,-7.00518 -16.18622,-10.1897 -20.94693,-4.8339c-5.41683,6.09393 -4.39108,23.96317 3.7597,24.16953c15.00948,0.37999 31.88717,-9.70111 38.67125,-23.09533c3.83291,-7.56755 -9.2502,-17.87623 -17.72432,-18.26142c-18.40059,-0.83639 -36.18467,7.91991 -53.17297,15.03882c-2.8216,1.18238 -6.05342,7.43344 -3.2226,8.59361c21.93988,8.99176 45.06974,19.48923 68.74889,18.26142c7.4366,-0.3856 6.99921,-15.3161 3.7597,-22.02113c-12.65077,-26.18415 -54.76371,-47.9447 -76.8054,-5.37101c-36.78877,71.05776 54.89043,60.92753 78.4167,63.91499M69.13026,100.07578c0.83774,-0.97736 4.00197,-6.59467 6.98231,-3.7597c6.71169,6.38429 27.49258,20.17767 18.26142,20.94693c-15.90699,1.32558 -44.88121,-2.85847 -44.04226,-18.79853c3.12504,-59.37587 73.24382,-15.09002 63.37788,7.51942c-6.95144,15.93039 -27.10771,22.43073 -42.96805,29.54054c-5.9017,2.64559 -15.33615,3.47135 -19.33563,-1.61131c-6.55733,-8.33327 -4.29682,-20.7679 -6.44521,-31.15184M359.70176,89.33377c7.25684,-0.19097 57.79609,5.28121 18.26142,-32.22605c-5.36935,-5.09399 -16.75237,4.70342 -18.79852,11.81622c-2.61765,9.09946 2.79181,19.18836 7.51941,27.39214c1.92555,3.34138 7.75562,6.7369 10.74201,4.29681c13.49086,-11.02302 43.29085,-26.01028 33.30025,-40.28256c-12.12582,-17.3226 -46.80751,-15.82056 -63.37789,-2.6855c-11.04376,8.7542 6.18239,32.53811 19.33563,37.59705c22.24003,8.55385 47.62293,-1.79033 71.43439,-2.6855M428.98775,122.63401c11.12409,-0.5562 23.41503,-4.71879 15.03882,20.40983c-1.57,4.70998 -9.87769,9.91615 -13.42752,6.44521c-7.61204,-7.44287 -13.16538,-19.71102 -10.74201,-30.07764c1.76937,-7.56896 13.81832,-15.39881 20.40983,-11.27911c10.06717,6.29199 11.26702,21.20199 13.96462,32.76314c1.19718,5.13076 1.60172,12.51363 -2.6855,15.57592c-7.60082,5.42916 -19.03758,10.08539 -27.39214,5.90811c-22.74403,-11.37202 -7.72543,-24.01445 -1.0742,-31.68895M433.82166,186.0119c0.35806,3.7597 -1.56145,8.57412 1.07419,11.27911c5.02879,5.16112 12.89042,6.44521 19.33563,9.66781M449.39758,169.89888c-4.29681,2.32744 -10.2239,2.88729 -12.89042,6.98231c-10.8327,16.63592 9.14559,31.92462 16.65013,42.43096M435.97006,297.19174c5.37101,4.29681 12.39356,7.10459 16.11302,12.89042c5.55917,8.6476 -4.7325,11.53884 -9.13072,12.35332c-2.28853,0.4238 -5.51213,1.80431 -6.98231,0c-0.81405,-0.99905 -8.90407,-22.73232 -4.83391,-26.31793c5.9913,-5.27805 15.03882,-5.37101 22.55823,-8.05651M433.82166,342.84531c-0.30654,1.53272 -4.48564,18.77663 -2.14841,20.94692c3.78651,3.51604 11.58758,7.60537 15.03882,3.7597c5.56393,-6.1998 3.7597,-16.37627 3.7597,-24.70663c0,-1.77234 -2.27721,-2.78842 -3.7597,-3.7597c-3.75284,-2.45875 -7.69241,-4.67787 -11.81622,-6.44521c-0.98734,-0.42315 -2.70368,-0.94054 -3.2226,0c-13.30347,24.11253 0.23417,24.91787 17.18723,53.17297M336.60642,414.81681c13.96462,4.83391 28.92067,7.42543 41.89386,14.50172c2.36282,1.28882 1.50241,6.30027 -0.5371,8.05651c-8.52496,7.34094 -46.25067,20.91343 -50.48747,-3.7597c-7.67316,-44.68486 60.629,-63.07364 82.71352,-26.85504c9.6764,15.8693 -3.35615,43.57408 -19.87273,52.09877c-18.96679,9.78931 -47.43319,5.0586 -63.37788,-9.13071c-10.76699,-9.58163 -5.73895,-33.17263 4.8339,-42.96806c17.73957,-16.43519 45.47452,-16.47109 68.21179,-24.70664M262.48652,449.72836c-0.71613,3.58067 -3.78144,7.47594 -2.1484,10.74201c1.44341,2.88683 6.21035,4.59689 9.13072,3.2226c7.34527,-3.45659 13.82685,-9.31334 18.26142,-16.11302c1.61296,-2.47321 0.49256,-7.27312 -2.14841,-8.59361c-6.47696,-3.23848 -14.24256,-3.2226 -21.48403,-3.2226c-1.93655,0 -4.29718,1.36192 -4.83391,3.2226c-2.3019,7.97993 -9.31505,19.06216 -3.2226,24.70664c9.97173,9.23852 27.27718,14.54623 39.74546,9.13072c10.67383,-4.63611 20.74247,-23.17533 13.42751,-32.22605c-28.48788,-35.24772 -56.66317,-5.80752 -51.56167,19.33563c1.16778,5.75546 8.52592,8.52625 13.96462,10.74201c4.65428,1.89618 10.02588,0.71614 15.03882,1.0742M106.72731,426.09592c4.11777,0 9.54023,-3.00709 12.35332,0c14.93112,15.96085 -9.52096,38.71769 -22.55823,0.5371c-2.06741,-6.05454 12.0991,-7.62783 18.26142,-5.90811c10.80912,3.01649 19.28095,11.64706 27.92924,18.79852c1.10377,0.91273 1.24966,3.59699 0,4.29681c-6.5158,3.64884 -81.23942,52.32298 -58.00688,-22.02113c19.74245,-63.17586 71.94372,16.01118 73.5828,22.02113c2.64177,9.68647 -9.30407,22.67735 -19.33563,23.09533c-24.47433,1.01976 -56.50872,0.48864 -70.8973,-19.33563c-10.25438,-14.12826 7.59729,-38.26874 22.55823,-47.26486c27.23809,-16.37846 58.92477,-7.43271 79.49091,10.74201c2.04339,1.80579 2.1484,5.01294 3.2226,7.51941" /></svg>