<svg xmlns="http://www.w3.org/2000/svg" viewBox="0 0 225.04 195.97"><defs><style>.b00748b5-723b-4807-a921-04eeb1bab5c9,.b6ad1af8-2492-4fda-9206-6108ca2e4bb6{fill:#000;}.b6ad1af8-2492-4fda-9206-6108ca2e4bb6{stroke:#000;stroke-miterlimit:10;stroke-width:0.5px;}</style></defs><title>logo The Live Drawing Project-11</title><g id="e0b612ec-4044-4d01-bf08-f277f39c008c" data-name="TEXTE"><path class="b00748b5-723b-4807-a921-04eeb1bab5c9" d="M29.22,80.91h9.57C45.44,80.91,49,84.55,49,92.24v14.87c0,7.69-3.53,11.33-10.18,11.33H29.22Zm6.45,32.23H37.9c3.43,0,4.63-1.3,4.63-5.25V91.46c0-3.95-1.2-5.25-4.63-5.25H35.67Z"/><path class="b00748b5-723b-4807-a921-04eeb1bab5c9" d="M61.65,118.44H55.21V80.91h9C71.47,80.91,75.16,84,75.16,92c0,6-2.33,8.47-4.52,9.46l5.46,17H69.55L65,102.9a32.26,32.26,0,0,1-3.33.15Zm0-20.69h2.29c3.48,0,4.78-1.3,4.78-5.77s-1.3-5.77-4.78-5.77H61.65Z"/><path class="b00748b5-723b-4807-a921-04eeb1bab5c9" d="M84.93,118.44H78.7l6.91-37.53h8l6.92,37.53H94.29l-1.14-8.32H86.08ZM87,104.51h5.2L89.66,88.4h-.1Z"/><path class="b00748b5-723b-4807-a921-04eeb1bab5c9" d="M113.52,80.91h5.3l4.36,23.91h.11l3.58-23.91h6l-6.6,37.53h-5.4l-4.68-24.79h-.1l-4.37,24.79h-5.41L99.22,80.91h6l4,23.91h.11Z"/><path class="b00748b5-723b-4807-a921-04eeb1bab5c9" d="M137.89,118.44V80.91h6.44v37.53Z"/><path class="b00748b5-723b-4807-a921-04eeb1bab5c9" d="M151.45,118.44V80.91h6l7.85,21.47h.1V80.91h5.82v37.53h-5.61L157.38,95h-.11v23.44Z"/><path class="b00748b5-723b-4807-a921-04eeb1bab5c9" d="M186.32,99.41h10.55v19h-3.11l-1.2-2.81c-1.92,2.29-3.48,3.33-6.5,3.33-5.09,0-8.62-3.64-8.62-9.62V90c0-5.3,3.12-9.62,9.46-9.62s9.66,4.68,9.66,10.29v2.39h-6.13c0-5.61-1.14-7.06-3.69-7.06-1.56,0-2.86.93-2.86,4.1v19.28c0,2.39.78,4,3,4,2.59,0,3.53-1.45,3.53-5.19v-3.64h-4.11Z"/><path class="b6ad1af8-2492-4fda-9206-6108ca2e4bb6" d="M45.08,135H52.9c5.33,0,8.83,3.59,8.83,9.11s-3.5,9.11-8.83,9.11H48.66v15H45.08Zm3.58,15.18h3.78c3.58,0,5.7-1.93,5.7-6.07S56,138,52.44,138H48.66Z"/><path class="b6ad1af8-2492-4fda-9206-6108ca2e4bb6" d="M66,135h8c5.34,0,9.11,3.13,9.11,8.6,0,3.73-1.65,6.86-5.33,8.15l5.61,16.47H79.58l-5.34-15.74-4.69.19v15.55H66Zm3.59,14.54h3.13c5.15,0,6.8-2,6.8-5.75S77.83,138,72.68,138H69.55Z"/><path class="b6ad1af8-2492-4fda-9206-6108ca2e4bb6" d="M97.42,168.63c-5.61,0-9.38-4.7-9.38-17.07s3.77-17.07,9.38-17.07,9.39,4.69,9.39,17.07S103,168.63,97.42,168.63Zm0-31.1c-3.22,0-5.79,2.76-5.79,14s2.57,14,5.79,14,5.8-2.76,5.8-14S100.64,137.53,97.42,137.53Z"/><path class="b6ad1af8-2492-4fda-9206-6108ca2e4bb6" d="M118.68,135v24.93c0,6.81-2.31,8.75-8.19,8.75a11,11,0,0,1-1.84-.28l.27-3.13a6.17,6.17,0,0,0,2.07.37c2.9,0,4.1-1.24,4.1-4.88V135Z"/><path class="b6ad1af8-2492-4fda-9206-6108ca2e4bb6" d="M139.93,135v3H128.34V149.3h8.55v3h-8.55v12.79h12.14v3H124.75V135Z"/><path class="b6ad1af8-2492-4fda-9206-6108ca2e4bb6" d="M158.79,145c-.46-5.25-2.12-7.45-4.93-7.45-4.18,0-6,3.68-6,14s1.84,14,6,14c3.36,0,5.3-2.3,5.39-8.47h3.59c-.1,7.37-3.32,11.51-9,11.51-5.93,0-9.61-4.51-9.61-17.07s3.68-17.07,9.61-17.07c4.93,0,8,3.4,8.52,10.49Z"/><path class="b6ad1af8-2492-4fda-9206-6108ca2e4bb6" d="M182.66,135v3h-6.81v30.18h-3.59V138h-6.8v-3Z"/><path class="b00748b5-723b-4807-a921-04eeb1bab5c9" d="M57.41,36.16v2.77H51.19V66.49H47.92V38.93H41.7V36.16Z"/><path class="b00748b5-723b-4807-a921-04eeb1bab5c9" d="M63.79,36.16V49.27H72.7V36.16H76V66.49H72.7V52H63.79V66.49H60.52V36.16Z"/><path class="b00748b5-723b-4807-a921-04eeb1bab5c9" d="M95.38,36.16v2.77H84.79V49.27H92.6V52H84.79V63.72H95.88v2.77H81.52V36.16Z"/><path class="b00748b5-723b-4807-a921-04eeb1bab5c9" d="M108,66.49V29h6.44V60.88h10.14v5.61Z"/><path class="b00748b5-723b-4807-a921-04eeb1bab5c9" d="M129.38,66.49V29h6.45V66.49Z"/><path class="b00748b5-723b-4807-a921-04eeb1bab5c9" d="M156.09,29h6.34l-7.84,37.52h-6.45L140.29,29h6.34l4.68,26h.11Z"/><path class="b00748b5-723b-4807-a921-04eeb1bab5c9" d="M166,66.49V29h17.25v5.61H172.46v9.67h8.32v5.61h-8.32v11H184v5.61Z"/></g></svg>