<svg xmlns="http://www.w3.org/2000/svg" viewBox="0 0 225.04 195.97"><defs><style>.cls-1{fill:#83b271;}.cls-2{fill:#abcb89;}.cls-3{fill:#d2ea9b;}.cls-4{fill:none;}.cls-5{isolation:isolate;}.cls-6{fill:#fff;}</style></defs><title>logo LDP final vectorise</title><rect class="cls-1" x="29.92" y="135.71" width="164.09" height="52.37"/><rect class="cls-2" x="24.69" y="71.52" width="189.57" height="56.01"/><rect class="cls-3" x="29.92" y="7.94" width="175.91" height="55.75"/><rect class="cls-4" x="0.69" y="16.95" width="223.67" height="165.14"/><g class="cls-5"><path class="cls-6" d="M38.57,22.56H32.33V17H51.25v5.61H45V54.47H38.57Z"/><path class="cls-6" d="M55,54.47V17h6.45V32.23h6.86V17h6.44V54.47H68.35V37.84H61.49V54.47Z"/><path class="cls-6" d="M81,54.47V17H98.28v5.61H87.47v9.67h8.32v5.61H87.47v11H99v5.61Z"/><path class="cls-6" d="M115.33,54.47V17h6.44V48.86h10.14v5.61Z"/><path class="cls-6" d="M136.74,54.47V17h6.44V54.47Z"/><path class="cls-6" d="M163.45,17h6.34l-7.85,37.52H155.5L147.65,17H154l4.68,26h.1Z"/><path class="cls-6" d="M173.38,54.47V17h17.25v5.61H179.82v9.67h8.32v5.61h-8.32v11h11.54v5.61Z"/></g><g class="cls-5"><path class="cls-6" d="M27.58,79.31h9.56c6.65,0,10.19,3.64,10.19,11.33V105.5c0,7.69-3.54,11.33-10.19,11.33H27.58ZM34,111.53h2.24c3.43,0,4.62-1.3,4.62-5.25V89.86c0-4-1.19-5.25-4.62-5.25H34Z"/><path class="cls-6" d="M60,116.83H53.56V79.31h9c7.22,0,10.91,3.07,10.91,11.07,0,6-2.34,8.47-4.52,9.46l5.46,17H67.91l-4.58-15.54a29.39,29.39,0,0,1-3.32.16Zm0-20.68h2.28c3.49,0,4.79-1.3,4.79-5.77s-1.3-5.77-4.79-5.77H60Z"/><path class="cls-6" d="M83.29,116.83H77.05L84,79.31h8l6.91,37.52H92.64l-1.14-8.31H84.43Zm2.08-13.93h5.2L88,86.79h-.1Z"/><path class="cls-6" d="M111.87,79.31h5.3l4.37,23.91h.1l3.59-23.91h6l-6.6,37.52h-5.41L114.58,92h-.11l-4.36,24.79H104.7L97.58,79.31h6l4,23.91h.1Z"/><path class="cls-6" d="M136.25,116.83V79.31h6.44v37.52Z"/><path class="cls-6" d="M149.81,116.83V79.31h6l7.84,21.46h.11V79.31h5.82v37.52H164l-8.22-23.44h-.1v23.44Z"/><path class="cls-6" d="M184.68,97.81h10.55v19h-3.12l-1.19-2.8c-1.92,2.28-3.48,3.32-6.5,3.32-5.09,0-8.63-3.64-8.63-9.61V88.4c0-5.3,3.12-9.61,9.46-9.61s9.67,4.68,9.67,10.29v2.39h-6.13c0-5.61-1.15-7.07-3.69-7.07-1.56,0-2.86.94-2.86,4.11v19.28c0,2.39.78,3.95,3,3.95,2.6,0,3.54-1.46,3.54-5.2V102.9h-4.11Z"/></g><g class="cls-5"><path class="cls-6" d="M34.8,179.2V141.68h9.25c8,0,11.64,3.07,11.64,11.07S52,163.82,44.05,163.82H41.24V179.2Zm6.44-20.68h2.5c4.21,0,5.51-1.3,5.51-5.77S48,147,43.74,147h-2.5Z"/><path class="cls-6" d="M67.23,179.2H60.78V141.68h9c7.22,0,10.91,3.07,10.91,11.07,0,6-2.34,8.47-4.52,9.46l5.46,17H75.13l-4.58-15.54a29.39,29.39,0,0,1-3.32.16Zm0-20.68h2.28c3.49,0,4.79-1.3,4.79-5.77S73,147,69.51,147H67.23Z"/><path class="cls-6" d="M86.77,150.77c0-5.3,3.12-9.61,9.87-9.61s9.88,4.31,9.88,9.61v19.34c0,5.3-3.12,9.61-9.88,9.61s-9.87-4.31-9.87-9.61ZM93.21,170c0,2.81.83,4.16,3.43,4.16s3.43-1.35,3.43-4.16v-19c0-2.81-.83-4.16-3.43-4.16s-3.43,1.35-3.43,4.16Z"/><path class="cls-6" d="M109.79,174.11h1.35c2.5,0,3.38-1,3.38-3.12V141.68H121v30c0,4.78-1.92,8-9,8h-2.13Z"/><path class="cls-6" d="M127.2,179.2V141.68h17.26v5.61H133.64V157H142v5.61h-8.32v11h11.54v5.61Z"/><path class="cls-6" d="M163.27,154.2v-2.91c0-3.17-1.46-4.52-3.12-4.52-2.6,0-3.43,1.35-3.43,4.16v19c0,2.81.83,4.16,3.43,4.16,2.34,0,3.12-1.35,3.12-3.79v-4.53h6.44v4.32c0,5.3-3.12,9.61-9.56,9.61-6.76,0-9.88-4.31-9.88-9.61V150.77c0-5.3,3.12-9.61,9.88-9.61,6.44,0,9.56,4.68,9.56,10.29v2.75Z"/><path class="cls-6" d="M180,147.29h-6.24v-5.61h18.92v5.61h-6.23V179.2H180Z"/></g></svg>