<?xml version="1.0" encoding="UTF-8"?>
<!-- Generator: Adobe Illustrator 16.0.0, SVG Export Plug-In . SVG Version: 6.00 Build 0)  -->
<!DOCTYPE svg PUBLIC "-//W3C//DTD SVG 1.1//EN" "http://www.w3.org/Graphics/SVG/1.1/DTD/svg11.dtd">
<svg version="1.1" id="Layer_1" xmlns="http://www.w3.org/2000/svg" xmlns:xlink="http://www.w3.org/1999/xlink" x="0px" y="0px" width="692.951px" height="345.929px" viewBox="0 0 692.951 345.929" enable-background="new 0 0 692.951 345.929" xml:space="preserve">
<g>
	<path fill="#333333" d="M6.678,337.579l-1.719,8.35H0l7.156-32.15h5.968l6.628,32.15h-4.961l-1.717-8.35H6.678z M12.546,333.569   l-1.335-7.389c-0.425-2.105-0.859-5.066-1.191-7.299H9.875c-0.333,2.232-0.809,5.342-1.191,7.344l-1.43,7.344H12.546z"/>
	<path fill="#333333" d="M32.844,337.579l-1.718,8.35h-4.959l7.153-32.15h5.963l6.634,32.15h-4.966l-1.718-8.35H32.844z    M38.713,333.569l-1.336-7.389c-0.433-2.105-0.859-5.066-1.191-7.299h-0.144c-0.339,2.232-0.816,5.342-1.198,7.344l-1.43,7.344   H38.713z"/>
	<path fill="#333333" d="M54.476,314.251c1.479-0.393,3.532-0.627,5.726-0.627c3.725,0,6.395,0.908,8.301,2.674   c2.628,2.34,4.245,6.537,4.245,12.979c0,6.922-1.717,11.26-4.15,13.645c-2.145,2.195-5.292,3.244-9.443,3.244   c-1.769,0-3.529-0.141-4.679-0.332V314.251z M59.537,341.872c0.427,0.096,0.904,0.096,1.236,0.096   c3.529,0,6.728-2.961,6.728-12.742c0-7.299-2.05-11.496-6.489-11.496c-0.521,0-1.047,0.045-1.475,0.148V341.872z"/>
	<path fill="#333333" d="M81.691,345.929v-32.15h4.676l5.438,13.734c1.146,2.91,2.765,7.061,3.768,10.162h0.095   c-0.282-4.105-0.572-9.063-0.572-14.795v-9.102h4.484v32.15h-4.671l-5.487-13.697c-1.198-2.955-2.628-6.818-3.531-10.203h-0.099   c0.238,3.717,0.382,8.252,0.382,14.932v8.969H81.691z"/>
	<path fill="#333333" d="M124.373,313.778v32.15h-2.051v-32.15H124.373z"/>
	<path fill="#333333" d="M150.395,334.854l-2.577,11.074h-2.007l7.587-32.15h1.957l7.68,32.15h-2.1l-2.57-11.074H150.395z    M157.882,333.097l-2.05-9.064c-0.571-2.482-1.005-4.779-1.429-7.352h-0.189c-0.382,2.623-0.859,5.01-1.387,7.395l-2.005,9.021   H157.882z"/>
	<path fill="#333333" d="M172.217,314.251c1.284-0.473,2.857-0.627,4.338-0.627c3.01,0,4.966,0.768,6.396,2.244   c1.387,1.479,2.1,3.627,2.1,6.014c0,4.535-2.1,6.967-5.296,8.445v0.096c2.481,0.619,3.817,3.051,4.583,7.732   c0.808,4.914,1.335,6.871,1.711,7.773h-2.05c-0.477-1.004-1.048-3.908-1.763-8.111c-0.815-4.678-2.432-6.635-6.201-6.635h-1.767   v14.746h-2.05V314.251z M174.267,329.563h1.812c3.963,0,6.822-2.814,6.822-7.297c0-4.299-1.762-6.871-6.44-6.871   c-0.858,0-1.623,0.043-2.194,0.186V329.563z"/>
	<path fill="#333333" d="M197.849,315.536h-6.012v-1.758h14.076v1.758H199.9v30.393h-2.051V315.536z"/>
	<path fill="#333333" d="M212.842,343.017c0.954,0.668,2.721,1.338,4.201,1.338c3.624,0,5.962-2.629,5.962-6.584   c0-3.389-1.911-5.582-4.294-7.586c-1.387-1.195-6.058-3.959-6.058-8.873c0-4.674,3.385-7.822,7.487-7.822   c1.912,0,3.486,0.658,4.15,1.189l-0.809,1.766c-0.764-0.576-2.1-1.1-3.673-1.1c-3.437,0-5.061,2.865-5.061,5.393   c0,3.959,2.101,5.393,4.917,7.588c3.624,2.857,5.442,5.627,5.442,9.301c0,5.34-3.63,8.59-8.02,8.59   c-1.956,0-4.152-0.76-4.959-1.477L212.842,343.017z"/>
	<path fill="#333333" d="M262.485,345.929c-0.665-0.953-1.241-1.619-2.577-3.576c-1.763,2.572-4.435,3.959-6.917,3.959   c-5.249,0-7.494-4.674-7.494-8.828c0-3.242,1.335-6.582,4.822-9.447l0.044-0.141c-1.234-2.1-2.333-4.439-2.333-7.35   c0-3.621,2.001-7.158,5.676-7.158c2.194,0,4.772,1.764,4.772,6.248c0,3.346-1.762,5.873-5.487,8.592v0.146   c1.098,1.906,3.725,6.053,6.967,10.543c1.623-3.537,2.144-8.303,2.243-10.305h2.052c-0.29,3.434-1.054,8.156-3.199,11.826   c0.333,0.627,1.335,2.004,3.862,5.49H262.485z M253.279,344.45c2.194,0,4.194-1.293,5.582-3.576   c-3.437-4.777-5.682-8.213-7.639-11.404c-1.812,1.67-3.574,4.336-3.574,7.867c0,3.582,1.812,7.113,5.581,7.113H253.279z    M253.279,315.249c-2.1,0-3.197,2.244-3.197,5.111c0,2.43,0.621,4.336,1.957,6.531c2.765-2.1,4.433-4.293,4.433-7.16   c0-2.238-0.852-4.482-3.147-4.482H253.279z"/>
	<path fill="#333333" d="M299.249,345.308c-1.048,0.568-2.579,0.908-4.485,0.908c-5.06,0-9.925-4.01-9.925-16.031   c0-13.023,6.013-16.695,10.401-16.695c1.763,0,3.098,0.332,3.77,0.762l-0.672,1.803c-0.81-0.371-1.574-0.709-3.429-0.709   c-3.342,0-7.926,3.537-7.926,14.457c0,11.215,4.056,14.553,8.113,14.553c1.574,0,2.817-0.383,3.581-0.807L299.249,345.308z"/>
	<path fill="#333333" d="M310.096,313.778v21.939c0,6.488,2.289,8.732,5.198,8.732c3.292,0,5.35-2.578,5.35-8.732v-21.939h2.05   v21.703c0,8.398-3.627,10.83-7.494,10.83c-3.674,0-7.153-2.244-7.153-10.164v-22.369H310.096z"/>
	<path fill="#333333" d="M333.396,313.778h2.053v30.383h9.541v1.768h-11.594V313.778z"/>
	<path fill="#333333" d="M353.924,315.536h-6.014v-1.758h14.08v1.758h-6.014v30.393h-2.053V315.536z"/>
	<path fill="#333333" d="M372.593,313.778v21.939c0,6.488,2.288,8.732,5.198,8.732c3.294,0,5.348-2.578,5.348-8.732v-21.939h2.053   v21.703c0,8.398-3.627,10.83-7.496,10.83c-3.673,0-7.152-2.244-7.152-10.164v-22.369H372.593z"/>
	<path fill="#333333" d="M395.894,314.251c1.287-0.473,2.859-0.627,4.339-0.627c3.012,0,4.966,0.768,6.396,2.244   c1.388,1.479,2.099,3.627,2.099,6.014c0,4.535-2.099,6.967-5.297,8.445v0.096c2.482,0.619,3.818,3.051,4.586,7.732   c0.807,4.914,1.335,6.871,1.708,7.773h-2.047c-0.479-1.004-1.049-3.908-1.765-8.111c-0.813-4.678-2.431-6.635-6.198-6.635h-1.77   v14.746h-2.051V314.251z M397.944,329.563h1.813c3.961,0,6.819-2.814,6.819-7.297c0-4.299-1.759-6.871-6.438-6.871   c-0.86,0-1.625,0.043-2.194,0.186V329.563z"/>
	<path fill="#333333" d="M428.921,329.948h-8.491v14.17h9.733v1.811h-11.784v-32.15h11.163v1.803h-9.112v12.551h8.491V329.948z"/>
	<path fill="#333333" d="M438.102,343.017c0.953,0.668,2.719,1.338,4.199,1.338c3.624,0,5.962-2.629,5.962-6.584   c0-3.389-1.909-5.582-4.295-7.586c-1.385-1.195-6.059-3.959-6.059-8.873c0-4.674,3.387-7.822,7.49-7.822   c1.91,0,3.486,0.658,4.149,1.189l-0.81,1.766c-0.765-0.576-2.098-1.1-3.673-1.1c-3.437,0-5.06,2.865-5.06,5.393   c0,3.959,2.099,5.393,4.913,7.588c3.627,2.857,5.444,5.627,5.444,9.301c0,5.34-3.631,8.59-8.021,8.59   c-1.955,0-4.152-0.76-4.958-1.477L438.102,343.017z"/>
	<path fill="#333333" d="M472.048,345.929v-32.15h2.049l6.49,16.6c1.573,4.049,3.291,8.393,4.532,12.301h0.096   c-0.332-6.104-0.332-9.348-0.332-14.688v-14.213h1.957v32.15h-2.061l-6.863-17.465c-1.437-3.576-2.77-6.967-4.152-11.693h-0.096   c0.333,4.971,0.333,8.496,0.333,15.609v13.549H472.048z"/>
	<path fill="#333333" d="M499.593,313.778v21.939c0,6.488,2.286,8.732,5.196,8.732c3.295,0,5.349-2.578,5.349-8.732v-21.939h2.054   v21.703c0,8.398-3.627,10.83-7.494,10.83c-3.675,0-7.155-2.244-7.155-10.164v-22.369H499.593z"/>
	<path fill="#333333" d="M541.784,330.466c-0.237-4.957-0.475-10.018-0.333-13.785h-0.237c-0.76,3.68-1.624,7.439-2.865,11.982   l-4.676,17.266h-1.05l-4.438-16.416c-1.331-5.002-2.335-8.967-3.053-12.832h-0.185c0.089,3.959-0.097,8.732-0.333,14.178   l-0.62,15.07h-2.061l1.676-32.15h2.38l4.491,16.6c1.189,4.342,2.002,7.248,2.764,10.926h0.146   c0.717-3.725,1.427-6.449,2.578-10.926l4.338-16.6h2.578l1.766,32.15h-2.099L541.784,330.466z"/>
	<path fill="#333333" d="M565.325,329.948h-8.489v14.17h9.729v1.811h-11.783v-32.15h11.163v1.803h-9.109v12.551h8.489V329.948z    M567.142,307.042l-6.014,5.014h-1.95l4.861-5.014H567.142z"/>
	<path fill="#333333" d="M575.272,314.251c1.286-0.473,2.858-0.627,4.336-0.627c3.014,0,4.965,0.768,6.397,2.244   c1.382,1.479,2.099,3.627,2.099,6.014c0,4.535-2.099,6.967-5.297,8.445v0.096c2.481,0.619,3.818,3.051,4.58,7.732   c0.813,4.914,1.337,6.871,1.721,7.773h-2.053c-0.479-1.004-1.05-3.908-1.767-8.111c-0.813-4.678-2.43-6.635-6.197-6.635h-1.772   v14.746h-2.047V314.251z M577.319,329.563h1.816c3.959,0,6.819-2.814,6.819-7.297c0-4.299-1.76-6.871-6.442-6.871   c-0.856,0-1.625,0.043-2.193,0.186V329.563z"/>
	<path fill="#333333" d="M599.805,313.778v32.15h-2.047v-32.15H599.805z"/>
	<path fill="#333333" d="M625.629,349.696c-2.296-0.908-5.591-2.387-6.876-3c-0.474-0.244-0.807-0.385-0.998-0.385   c-4.721,0-8.399-4.824-8.399-16.459c0-12.027,4.055-16.465,8.777-16.465c4.063,0,8.015,4.438,8.015,16.465   c0,9.256-2.239,14.027-5.865,15.604v0.133c2.2,0.959,4.394,1.676,6.152,2.244L625.629,349.696z M617.896,344.45   c4.964,0,6.109-8.398,6.109-14.598c0-6.211-1.242-14.604-6.161-14.604c-5.104,0-6.347,8.393-6.347,14.604   c0,6.199,1.242,14.598,6.347,14.598H617.896z"/>
	<path fill="#333333" d="M637.669,313.778v21.939c0,6.488,2.29,8.732,5.194,8.732c3.294,0,5.347-2.578,5.347-8.732v-21.939h2.055   v21.703c0,8.398-3.627,10.83-7.492,10.83c-3.678,0-7.157-2.244-7.157-10.164v-22.369H637.669z"/>
	<path fill="#333333" d="M671.509,329.948h-8.489v14.17h9.73v1.811h-11.784v-32.15h11.164v1.803h-9.11v12.551h8.489V329.948z"/>
	<path fill="#333333" d="M680.688,343.017c0.954,0.668,2.72,1.338,4.204,1.338c3.62,0,5.962-2.629,5.962-6.584   c0-3.389-1.914-5.582-4.299-7.586c-1.382-1.195-6.052-3.959-6.052-8.873c0-4.674,3.384-7.822,7.484-7.822   c1.913,0,3.485,0.658,4.152,1.189l-0.813,1.766c-0.762-0.576-2.098-1.1-3.673-1.1c-3.435,0-5.059,2.865-5.059,5.393   c0,3.959,2.099,5.393,4.913,7.588c3.626,2.857,5.443,5.627,5.443,9.301c0,5.34-3.628,8.59-8.015,8.59   c-1.958,0-4.153-0.76-4.965-1.477L680.688,343.017z"/>
</g>
<path fill="#333333" d="M691.876,11.179c-0.044-14.904-23.156-14.908-23.111,0c0.229,77.527,0.466,155.054,0.709,232.582  C594.758,163.983,520.034,84.198,445.317,4.416c-10.21-10.897-26.519,5.481-16.341,16.348  c81.321,86.832,162.646,173.667,243.972,260.502c6.966,7.439,19.76,1.676,19.728-8.174  C692.414,185.786,692.146,98.486,691.876,11.179z"/>
<path fill="#333333" d="M542.903,172.801C489.962,116.672,437.021,60.543,384.078,4.413c-6.998-7.424-19.725-1.689-19.725,8.174  c0,72.894,0,145.788,0,218.684C319.226,156.43,274.103,81.593,228.982,6.753c-7.688-12.745-27.678-1.132-19.965,11.67  c52.308,86.743,104.608,173.488,156.911,260.234c5.907,9.793,21.538,5.775,21.538-5.834c0-77.043,0-154.098,0-231.147  c17.882,18.959,35.76,37.913,53.643,56.872c-0.058-0.016-0.112-0.02-0.167-0.035l7.446,7.898c-0.013-0.054-0.007-0.117-0.019-0.166  c23.339,24.748,46.685,49.496,70.021,74.246c-23.229,21.859-46.455,43.73-69.688,65.586c0-37.08,0.063-73.002,0.063-110.092  l-23.112-24.503c0,54.169-0.063,107.172-0.063,161.342c0,10.307,12.48,15.002,19.729,8.17c32.528-30.611,65.061-61.23,97.586-91.848  C547.593,184.737,547.125,177.276,542.903,172.801z"/>
<path fill="#333333" d="M55.135,266.798c-7.645,12.838,12.347,24.455,19.965,11.662c18.879-31.717,37.772-63.43,56.653-95.145  c32.537,0,65.074,0,97.611,0c-4.64-7.701-9.28-15.408-13.92-23.112c-23.307,0-46.614,0-69.927,0  c11.587-19.459,23.175-38.919,34.763-58.379c-4.508-7.494-9.023-14.983-13.531-22.474C150.702,106.302,71.702,238.97,55.135,266.798  z"/>
<path fill="#333333" d="M23.934,278.657c-7.569,12.832-27.552,1.209-19.964-11.662C55.086,180.38,106.202,93.755,157.318,7.132  c4.45-7.534,15.493-7.434,19.965,0c52.13,86.713,104.263,173.424,156.393,260.127c7.703,12.818-12.288,24.43-19.963,11.682  c-9.875-16.436-19.751-32.863-29.627-49.287c-0.213-0.471-0.388-0.941-0.669-1.41C248.997,171.099,171.652,42.645,167.395,35.559  C142.876,77.106,42.708,246.845,23.934,278.657z"/>
</svg>